<svg xmlns="http://www.w3.org/2000/svg" xmlns:xlink="http://www.w3.org/1999/xlink" viewBox="0,0,256,256" width="64px" height="64px" fill-rule="nonzero"><defs><linearGradient x1="31.93" y1="4.288" x2="31.93" y2="46.897" gradientUnits="userSpaceOnUse" id="color-1"><stop offset="0" stop-color="#404243"></stop><stop offset="1" stop-color="#aba5ae"></stop></linearGradient><linearGradient x1="32" y1="11.511" x2="32" y2="54.253" gradientUnits="userSpaceOnUse" id="color-2"><stop offset="0" stop-color="#adb1b8"></stop><stop offset="1" stop-color="#000000"></stop></linearGradient><linearGradient x1="38.734" y1="-0.405" x2="38.734" y2="56.573" gradientUnits="userSpaceOnUse" id="color-3"><stop offset="0" stop-color="#adb1b8"></stop><stop offset="1" stop-color="#000000"></stop></linearGradient><linearGradient x1="39.241" y1="17.198" x2="39.241" y2="41.225" gradientUnits="userSpaceOnUse" id="color-4"><stop offset="0" stop-color="#404243"></stop><stop offset="1" stop-color="#aba5ae"></stop></linearGradient><linearGradient x1="24.311" y1="-0.405" x2="24.311" y2="56.573" gradientUnits="userSpaceOnUse" id="color-5"><stop offset="0" stop-color="#adb1b8"></stop><stop offset="1" stop-color="#000000"></stop></linearGradient><linearGradient x1="23.805" y1="17.198" x2="23.805" y2="41.225" gradientUnits="userSpaceOnUse" id="color-6"><stop offset="0" stop-color="#404243"></stop><stop offset="1" stop-color="#aba5ae"></stop></linearGradient><linearGradient x1="15.948" y1="16.275" x2="15.948" y2="42.357" gradientUnits="userSpaceOnUse" id="color-7"><stop offset="0" stop-color="#404243"></stop><stop offset="1" stop-color="#aba5ae"></stop></linearGradient><linearGradient x1="23.335" y1="3.458" x2="23.335" y2="54.776" gradientUnits="userSpaceOnUse" id="color-8"><stop offset="0" stop-color="#adb1b8"></stop><stop offset="1" stop-color="#000000"></stop></linearGradient><linearGradient x1="15.96" y1="1.867" x2="15.96" y2="55.459" gradientUnits="userSpaceOnUse" id="color-9"><stop offset="0" stop-color="#adb1b8"></stop><stop offset="1" stop-color="#000000"></stop></linearGradient><linearGradient x1="22.276" y1="16.435" x2="22.276" y2="42.252" gradientUnits="userSpaceOnUse" id="color-10"><stop offset="0" stop-color="#404243"></stop><stop offset="1" stop-color="#aba5ae"></stop></linearGradient><linearGradient x1="47.592" y1="18.498" x2="47.592" y2="40.811" gradientUnits="userSpaceOnUse" id="color-11"><stop offset="0" stop-color="#404243"></stop><stop offset="1" stop-color="#aba5ae"></stop></linearGradient><linearGradient x1="40.205" y1="3.458" x2="40.205" y2="54.776" gradientUnits="userSpaceOnUse" id="color-12"><stop offset="0" stop-color="#adb1b8"></stop><stop offset="1" stop-color="#000000"></stop></linearGradient><linearGradient x1="47.58" y1="1.86" x2="47.58" y2="55.464" gradientUnits="userSpaceOnUse" id="color-13"><stop offset="0" stop-color="#adb1b8"></stop><stop offset="1" stop-color="#000000"></stop></linearGradient><linearGradient x1="41.264" y1="18.655" x2="41.264" y2="40.725" gradientUnits="userSpaceOnUse" id="color-14"><stop offset="0" stop-color="#404243"></stop><stop offset="1" stop-color="#aba5ae"></stop></linearGradient><linearGradient x1="15.765" y1="15.669" x2="15.765" y2="42.61" gradientUnits="userSpaceOnUse" id="color-15"><stop offset="0" stop-color="#404243"></stop><stop offset="1" stop-color="#aba5ae"></stop></linearGradient><linearGradient x1="15.768" y1="1.221" x2="15.768" y2="55.962" gradientUnits="userSpaceOnUse" id="color-16"><stop offset="0" stop-color="#adb1b8"></stop><stop offset="1" stop-color="#000000"></stop></linearGradient><linearGradient x1="47.775" y1="17.965" x2="47.775" y2="41.013" gradientUnits="userSpaceOnUse" id="color-17"><stop offset="0" stop-color="#404243"></stop><stop offset="1" stop-color="#aba5ae"></stop></linearGradient><linearGradient x1="51.544" y1="18.414" x2="51.544" y2="39.986" gradientUnits="userSpaceOnUse" id="color-18"><stop offset="0" stop-color="#404243"></stop><stop offset="1" stop-color="#aba5ae"></stop></linearGradient><linearGradient x1="47.772" y1="1.221" x2="47.772" y2="55.962" gradientUnits="userSpaceOnUse" id="color-19"><stop offset="0" stop-color="#adb1b8"></stop><stop offset="1" stop-color="#000000"></stop></linearGradient><linearGradient x1="50.535" y1="1.187" x2="50.535" y2="56.006" gradientUnits="userSpaceOnUse" id="color-20"><stop offset="0" stop-color="#adb1b8"></stop><stop offset="1" stop-color="#000000"></stop></linearGradient><linearGradient x1="13.006" y1="18.414" x2="13.006" y2="39.986" gradientUnits="userSpaceOnUse" id="color-21"><stop offset="0" stop-color="#404243"></stop><stop offset="1" stop-color="#aba5ae"></stop></linearGradient><linearGradient x1="14.015" y1="1.187" x2="14.015" y2="56.006" gradientUnits="userSpaceOnUse" id="color-22"><stop offset="0" stop-color="#adb1b8"></stop><stop offset="1" stop-color="#000000"></stop></linearGradient><linearGradient x1="31.905" y1="1.221" x2="31.905" y2="55.962" gradientUnits="userSpaceOnUse" id="color-23"><stop offset="0" stop-color="#adb1b8"></stop><stop offset="1" stop-color="#000000"></stop></linearGradient><linearGradient x1="31.982" y1="42.626" x2="31.982" y2="47.834" gradientUnits="userSpaceOnUse" id="color-24"><stop offset="0" stop-color="#404243"></stop><stop offset="1" stop-color="#aba5ae"></stop></linearGradient><linearGradient x1="37.02" y1="24.94" x2="40.62" y2="24.94" gradientUnits="userSpaceOnUse" id="color-25"><stop offset="0" stop-color="#adb1b8"></stop><stop offset="1" stop-color="#000000"></stop></linearGradient><linearGradient x1="34.65" y1="26.825" x2="35.22" y2="26.825" gradientUnits="userSpaceOnUse" id="color-26"><stop offset="0" stop-color="#adb1b8"></stop><stop offset="1" stop-color="#000000"></stop></linearGradient><linearGradient x1="24" y1="8.251" x2="24" y2="19.889" gradientUnits="userSpaceOnUse" id="color-27"><stop offset="0" stop-color="#404243"></stop><stop offset="1" stop-color="#aba5ae"></stop></linearGradient><linearGradient x1="39.77" y1="8.251" x2="39.77" y2="19.889" gradientUnits="userSpaceOnUse" id="color-28"><stop offset="0" stop-color="#404243"></stop><stop offset="1" stop-color="#aba5ae"></stop></linearGradient><linearGradient x1="34.65" y1="26.825" x2="35.22" y2="26.825" gradientUnits="userSpaceOnUse" id="color-29"><stop offset="0" stop-color="#adb1b8"></stop><stop offset="1" stop-color="#000000"></stop></linearGradient><linearGradient x1="31.959" y1="53" x2="31.959" y2="54.847" gradientUnits="userSpaceOnUse" id="color-30"><stop offset="0" stop-color="#404243"></stop><stop offset="1" stop-color="#aba5ae"></stop></linearGradient><linearGradient x1="32" y1="6.969" x2="32" y2="47.797" gradientUnits="userSpaceOnUse" id="color-31"><stop offset="0" stop-color="#adb1b8"></stop><stop offset="1" stop-color="#000000"></stop></linearGradient></defs><g transform=""><g fill="none" fill-rule="nonzero" stroke="none" stroke-width="1" stroke-linecap="butt" stroke-linejoin="miter" stroke-miterlimit="10" stroke-dasharray="" stroke-dashoffset="0" font-family="none" font-weight="none" font-size="none" text-anchor="none" style="mix-blend-mode: normal"><g transform="scale(4,4)"><path d="M52.115,30.859c0,7.223 -3.822,13.569 -9.555,17.107l-8.842,-8.119l-3.922,-0.567l-8.896,8.348c-5.431,-3.602 -9.015,-9.774 -9.015,-16.769c0,-4.188 0.681,-6.851 2.875,-10.069c-0.512,-1.838 -2.453,-6.806 -3.019,-9.65c0.914,-0.914 1.445,-1.829 1.445,-1.829h1.234l-0.658,1.682l5.502,4.303c3.465,-2.853 7.909,-4.553 12.737,-4.553c4.828,0 9.271,1.701 12.737,4.553l3.529,-2.871l0.93,-2.597h1.234c0,0 0.53,0.914 1.445,1.829c-0.567,2.844 -1.235,6.926 -1.747,8.764c2.193,3.219 1.986,6.25 1.986,10.438z" fill="url(#color-1)"></path><path d="M50.31,21.71c-0.05,-0.11 -0.11,-0.22 -0.17,-0.33c-0.12,-0.23 -0.24,-0.44 -0.37,-0.66c-0.25,-0.44 -0.53,-0.88 -0.84,-1.3c-0.04,0.11 -0.08,0.23 -0.11,0.34c-0.12,0.42 -0.24,0.81 -0.36,1.16c-0.06,0.19 -0.12,0.38 -0.18,0.55c0.29,0.47 0.55,0.96 0.8,1.46c0.11,0.22 0.22,0.45 0.32,0.67c0.05,0.11 0.09,0.21 0.13,0.32c0.96,2.26 1.48,4.74 1.48,7.35c0,10.48 -8.52,19.01 -19.01,19.01c-10.49,0 -19.01,-8.53 -19.01,-19.01c0,-2.6 0.52,-5.08 1.48,-7.34c0.04,-0.11 0.09,-0.22 0.14,-0.33c0.09,-0.22 0.2,-0.45 0.31,-0.67c0.25,-0.5 0.51,-0.99 0.8,-1.47c-0.06,-0.17 -0.12,-0.35 -0.18,-0.54c-0.12,-0.36 -0.24,-0.74 -0.36,-1.16c-0.03,-0.11 -0.07,-0.23 -0.11,-0.34c-0.31,0.42 -0.59,0.86 -0.84,1.3c-0.13,0.22 -0.25,0.43 -0.37,0.66c-0.06,0.11 -0.12,0.22 -0.17,0.33c-1.52,2.85 -2.36,6.1 -2.36,9.56c0,11.41 9.26,20.67 20.67,20.67c11.41,0 20.67,-9.26 20.67,-20.67c0,-3.46 -0.84,-6.71 -2.36,-9.56z" fill="url(#color-2)"></path><path d="M42.729,49.23c-0.14,0.1 -0.33,0.13 -0.51,0.04l-7.479,-4.54l0.08,-0.37v-0.01l0.47,-2.17c0,-0.01 0.01,-0.02 0,-0.03l0.08,-0.37l0.17,-0.78l1.36,1.43z" fill="url(#color-3)"></path><path d="M42.729,49.23l-5.829,-6.8l-1.36,-1.43l6,2.97l0.16,0.51l0.33,1.03l0.889,3.16c0.07,0.23 -0.03,0.44 -0.19,0.56z" fill="url(#color-4)"></path><path d="M20.318,49.23c0.14,0.1 0.33,0.13 0.51,0.04l7.479,-4.54l-0.08,-0.37v-0.01l-0.47,-2.17c0,-0.01 -0.01,-0.02 0,-0.03l-0.08,-0.37l-0.171,-0.78l-1.36,1.43z" fill="url(#color-5)"></path><path d="M20.318,49.23l5.829,-6.8l1.36,-1.43l-6,2.97l-0.16,0.51l-0.33,1.03l-0.889,3.16c-0.07,0.23 0.03,0.44 0.19,0.56z" fill="url(#color-6)"></path><path d="M26,32l-20.08,13.38c-0.05,-0.17 -0.03,-0.36 0.11,-0.51l8.36,-9.2l0.61,-0.67z" fill="url(#color-7)"></path><path d="M30,41l-0.48,0.21h-0.01l-0.96,0.41l-0.38,0.16l-1.53,0.65l-4.8,2.05l-0.9,0.39c-0.04,0.01 -0.07,0.02 -0.1,0.03l-3.59,1.53c-0.23,0.1 -0.45,0.02 -0.58,-0.14l11.33,-9.29l0.04,0.08l1.72,3.44z" fill="url(#color-8)"></path><path d="M26,32v4.9l-6.17,6.1l-1.57,0.32l-1.2,0.24l-10.56,2.14c-0.01,0 -0.02,0.01 -0.03,0c-0.26,0.04 -0.47,-0.12 -0.55,-0.32z" fill="url(#color-9)"></path><path d="M28,37l-11.33,9.29c-0.13,-0.15 -0.17,-0.39 -0.03,-0.6l0.93,-1.36l0.69,-1.01l7.74,-11.32h1.42l0.05,0.44l0.52,4.47z" fill="url(#color-10)"></path><path d="M57.62,45.38l-20.08,-13.38l11,3l0.61,0.67l8.36,9.2c0.14,0.15 0.16,0.34 0.11,0.51z" fill="url(#color-11)"></path><path d="M46.87,46.29c-0.13,0.16 -0.35,0.24 -0.58,0.14l-3.59,-1.53c-0.03,-0.01 -0.06,-0.02 -0.1,-0.03l-0.9,-0.39l-4.8,-2.05l-1.53,-0.65l-0.38,-0.16l-0.96,-0.41h-0.01c-0.01,-0.01 -0.02,-0.01 -0.03,-0.02l-0.45,-0.19l0.24,-0.48l1.75,-3.5c0.01,0 0.01,-0.01 0.01,-0.02z" fill="url(#color-12)"></path><path d="M57.62,45.38c-0.08,0.21 -0.3,0.37 -0.56,0.32h-0.01l-10.57,-2.14l-1.2,-0.24l-1.57,-0.32l-6.17,-6.1v-4.89c0,-0.01 0,-0.01 0,-0.01z" fill="url(#color-13)"></path><path d="M46.87,46.29l-11.33,-9.29c0,-0.01 0,-0.02 0.01,-0.02l1.46,-3.83c0.01,-0.01 0.01,-0.02 0.02,-0.03l0.49,-1.08c0.01,-0.01 0.02,-0.02 0.02,-0.03l7.74,11.31l0.69,1.01l0.93,1.36c0.14,0.21 0.1,0.45 -0.03,0.6z" fill="url(#color-14)"></path><path d="M26,31l-0.63,0.06l-19.82,1.97c-0.01,-0.02 -0.02,-0.04 -0.01,-0.06c-0.04,-0.19 0.03,-0.4 0.24,-0.52l8.25,-4.54l3.89,-2.14l0.52,-0.29l1.19,0.87h0.01l0.17,0.13l4.73,3.46h0.01l0.11,0.08l0.01,0.01z" fill="url(#color-15)"></path><path d="M26,32l-11,3l-0.89,-0.16l-8.18,-1.46h-0.01c-0.01,0 -0.01,0 -0.02,-0.01c-0.19,-0.04 -0.31,-0.19 -0.35,-0.34c-0.01,-0.02 -0.02,-0.04 -0.01,-0.06l19,-3.03h0.01l0.05,-0.01l0.06,0.09l0.01,0.01l0.7,1.03z" fill="url(#color-16)"></path><path d="M58,32.97c0.01,0.02 0,0.04 -0.01,0.06l-19.82,-1.97l-0.63,-0.06l1.34,-0.97v-0.01h0.01l0.01,-0.01l0.09,-0.07h0.01l6.1,-4.46l0.92,0.51l3.49,1.92l8.25,4.54c0.21,0.12 0.28,0.33 0.24,0.52z" fill="url(#color-17)"></path><path d="M55.07,25h-7.07l0.84,-4.21v-0.01c0,-0.01 0,-0.01 0.01,-0.02c0.1,-0.35 0.5,-0.5 0.79,-0.27l5.25,4.02c0.17,0.12 0.23,0.32 0.18,0.49z" fill="url(#color-18)"></path><path d="M58,32.97c0.01,0.02 0,0.04 -0.01,0.06c-0.04,0.15 -0.16,0.3 -0.35,0.34c-0.01,0.01 -0.01,0.01 -0.02,0.01h-0.01l-8.18,1.46l-0.89,0.16l-11,-3c0.01,-0.01 0.02,-0.02 0.02,-0.03l0.61,-0.91l0.69,-1.01l0.02,-0.02v-0.01l0.06,-0.09l0.05,0.01h0.01z" fill="url(#color-19)"></path><path d="M55.07,25c-0.02,0.15 -0.11,0.28 -0.26,0.35l-5.3,2.56h-0.01l-3.5,-1.91l0.02,-0.01l1.85,-0.99z" fill="url(#color-20)"></path><path d="M9.48,25h7.07l-0.84,-4.21v-0.01c0,-0.01 0,-0.01 -0.01,-0.02c-0.1,-0.35 -0.5,-0.5 -0.79,-0.27l-5.25,4.02c-0.17,0.12 -0.23,0.32 -0.18,0.49z" fill="url(#color-21)"></path><path d="M9.48,25c0.02,0.15 0.11,0.28 0.26,0.35l5.3,2.56h0.01l3.5,-1.91l-0.02,-0.01l-1.85,-0.99z" fill="url(#color-22)"></path><path d="M37.01,36.06l-0.982,18.387c-0.019,0.374 -0.242,0.708 -0.582,0.865c-1.055,0.486 -2.451,0.628 -3.435,0.628c-0.981,0 -2.319,-0.15 -3.428,-0.638c-0.351,-0.154 -0.593,-0.486 -0.616,-0.869l-1.167,-18.373l1,-0.06l1,0.01c2.07,0.927 4.14,0.927 6.21,0l1,-0.01z" fill="url(#color-23)"></path><path d="M29,42.626h6c0,0 0.22,2.754 -0.349,4.861c-0.08,0.295 -0.422,0.426 -0.7,0.299c-0.543,-0.249 -0.904,-0.488 -1.156,-0.744c-0.467,-0.475 -1.218,-0.511 -1.697,-0.048c-0.268,0.259 -0.643,0.5 -1.196,0.75c-0.308,0.139 -0.646,-0.056 -0.711,-0.388c-0.153,-0.791 -0.393,-2.629 -0.191,-4.73z" fill="url(#color-24)"></path><path d="M40.62,23.95c0,0.03 -0.01,0.05 -0.02,0.08l-3.5,1.9c-0.03,-0.01 -0.05,-0.02 -0.08,-0.03z" fill="url(#color-25)"></path><path d="M28.64,25.73c-0.8,1.14 -2.38,1.64 -3.91,1.15c-1.84,-0.6 -2.9,-2.42 -2.36,-4.07c0.04,-0.13 0.09,-0.26 0.17,-0.38z" fill="#ffffff"></path><path d="M40.62,23.95c0,0.03 -0.01,0.05 -0.02,0.08c-0.03,0.2 -0.09,0.4 -0.19,0.59c-0.31,0.61 -0.88,1.08 -1.58,1.31c-0.59,0.19 -1.21,0.17 -1.73,0c-0.03,-0.01 -0.05,-0.02 -0.08,-0.03z" fill="#ffffff"></path><path d="M34.65,26.6c0.14,0.17 0.29,0.32 0.45,0.45c0.02,-0.1 0.06,-0.21 0.12,-0.32z" fill="url(#color-26)"></path><path d="M20,9l4,9h4c-1,-6 -4.444,-7.367 -8,-9z" fill="url(#color-27)"></path><path d="M43.541,9l-4,9h-3.541c1,-6 3.985,-7.367 7.541,-9z" fill="url(#color-28)"></path><path d="M30.111,48.877l0.407,2.539c0,0.296 -0.244,0.54 -0.548,0.54c-0.289,0 -0.526,-0.222 -0.548,-0.503v-0.037c0,-0.022 0.015,-0.141 0.03,-0.17c0.2,-0.607 0.342,-1.12 0.659,-2.369z" fill="#ffffff"></path><path d="M34.568,51.512c-0.037,0.215 -0.207,0.385 -0.422,0.437c-0.037,0 -0.081,0.007 -0.118,0.007h-0.038c-0.281,-0.022 -0.511,-0.259 -0.511,-0.54l0.438,-2.539c0.248,0.707 0.358,1.633 0.58,2.263c0.074,0.192 0.071,0.182 0.071,0.372z" fill="#ffffff"></path><path d="M35.22,26.73c-0.06,0.11 -0.1,0.22 -0.12,0.32c-0.16,-0.13 -0.31,-0.28 -0.45,-0.45z" fill="url(#color-29)"></path><path d="M31,51.837c-0.276,0 -0.5,-0.224 -0.5,-0.5v-0.5c0,-0.276 0.224,-0.5 0.5,-0.5c0.276,0 0.5,0.224 0.5,0.5v0.5c0,0.276 -0.224,0.5 -0.5,0.5z" fill="#ffffff"></path><path d="M32,51.837c-0.276,0 -0.5,-0.224 -0.5,-0.5v-0.5c0,-0.276 0.224,-0.5 0.5,-0.5c0.276,0 0.5,0.224 0.5,0.5v0.5c0,0.276 -0.224,0.5 -0.5,0.5z" fill="#ffffff"></path><path d="M33,51.837c-0.276,0 -0.5,-0.224 -0.5,-0.5v-0.5c0,-0.276 0.224,-0.5 0.5,-0.5c0.276,0 0.5,0.224 0.5,0.5v0.5c0,0.276 -0.224,0.5 -0.5,0.5z" fill="#ffffff"></path><path d="M30.038,54.847h3.843c0.552,0 1,-0.448 1,-1v-0.847c-2.057,0.48 -4.003,0.472 -5.843,0v0.847c0,0.552 0.448,1 1,1z" fill="url(#color-30)"></path><g fill="url(#color-31)"><path d="M51.29,8.38c-0.19,-0.24 -0.48,-0.38 -0.79,-0.38h-0.5c-0.51,0 -0.93,0.38 -0.99,0.88l-0.17,1.44l-3.56,2.9l0.26,-4.15c0.04,-0.76 -0.74,-1.29 -1.43,-0.97l-4.64,2.2c-2.33,-0.84 -4.85,-1.3 -7.47,-1.3c-2.77,0 -5.43,0.51 -7.87,1.45l-4.68,-2.34c-0.69,-0.35 -1.49,0.18 -1.45,0.95l0.23,3.76l-3.07,-2.5l-0.17,-1.44c-0.06,-0.5 -0.48,-0.88 -0.99,-0.88h-0.5c-0.31,0 -0.6,0.14 -0.79,0.38l-1.8,2.29l0.11,0.53c0.72,3.59 1.44,6.42 2.07,8.58c0.14,0.47 0.27,0.9 0.4,1.31c0.06,0.22 0.13,0.42 0.2,0.62c0.04,0.14 0.08,0.28 0.13,0.41c0.16,0.47 0.3,0.88 0.44,1.24c0.08,0.21 0.15,0.4 0.21,0.57c0.35,0.92 0.58,1.4 0.62,1.5c0.01,0.01 0.02,0.02 0.02,0.02l0.11,0.23l0.23,0.15c0.07,0.05 0.59,0.4 1.33,0.89c1.87,1.24 5.17,3.41 6.32,4.08c1.34,0.76 2.9,2.22 2.9,4.84v0.41l0.29,0.3c0.17,0.17 0.31,0.32 0.6,0.49l0.11,2.37c3.21,1.47 6.54,1.47 10,0v-2.34c0.29,-0.17 0.53,-0.34 0.71,-0.52l0.29,-0.3v-0.41c0,-2.62 1.56,-4.08 2.9,-4.85c1.15,-0.67 4.46,-2.84 6.33,-4.08c0.74,-0.49 1.25,-0.83 1.32,-0.88l0.23,-0.15l0.11,-0.23c0,-0.01 0.01,-0.02 0.02,-0.03c0.06,-0.13 0.29,-0.61 0.62,-1.5c0.08,-0.17 0.15,-0.36 0.22,-0.56c0.13,-0.36 0.28,-0.77 0.43,-1.24c0.05,-0.13 0.09,-0.27 0.13,-0.41c0.07,-0.2 0.14,-0.4 0.2,-0.62c0.13,-0.41 0.26,-0.84 0.4,-1.31c0.63,-2.16 1.35,-4.99 2.07,-8.58l0.11,-0.53zM39.55,12.46l0.27,-0.13l2.06,-0.98l0.77,-0.36l-0.27,0.62l-0.72,1.61l-1.68,3.78h-2.44zM37.2,11.93l-2.95,5.56c-0.34,0.66 0.11,1.44 0.85,1.47l1.1,0.04c-1.53,1.94 -2.01,4.07 -2.15,5.42l-1.2,-0.26h-1.7l-1.54,0.33c-0.14,-1.35 -0.6,-3.51 -2.16,-5.49h0.62c0.73,0 1.22,-0.75 0.91,-1.42c-0.82,-1.77 -2.17,-4.7 -2.57,-5.65c3.59,-0.77 7.2,-0.77 10.79,0zM30.77,26.29l1.23,-0.27l1.23,0.27c-0.62,1.72 0.12,3.39 1.05,4.56c-1.62,0.66 -3.14,0.68 -4.56,0c0.93,-1.17 1.67,-2.84 1.05,-4.56zM21.8,11.52l1.98,0.99l0.77,0.38l0.04,-0.07c0.4,0.96 1.14,2.71 1.82,4.18h-2.85l-1.59,-3.57l-0.71,-1.62l-0.33,-0.73zM15.72,21.46c-0.06,-0.17 -0.12,-0.35 -0.18,-0.54c-0.12,-0.36 -0.24,-0.74 -0.36,-1.16c-0.03,-0.11 -0.07,-0.23 -0.11,-0.34c-0.05,-0.18 -0.11,-0.37 -0.17,-0.57c-0.11,-0.39 -0.22,-0.81 -0.34,-1.25c-0.47,-1.73 -0.98,-3.82 -1.48,-6.29c0.06,-0.06 0.11,-0.11 0.16,-0.17l0.02,0.22l4.04,3.29l1.39,1.13l3.95,3.22h2.01c1.93,1.56 2.63,3.58 2.87,4.98l-5.31,-2.86l-2.64,-1.43l-2.15,-2.69c-0.43,0.43 -0.82,0.87 -1.18,1.34l2.03,2.91l1.32,0.72c-0.61,0.61 -1.53,1.43 -2.8,2.34c-0.18,-0.4 -0.56,-1.32 -1.07,-2.85zM26.85,25.9c-0.55,0.21 -1.19,0.23 -1.81,0.03c-0.7,-0.23 -1.27,-0.7 -1.58,-1.31c-0.11,-0.22 -0.18,-0.44 -0.21,-0.67zM39.9,29.06c-1.71,0.98 -3.7,2.87 -3.89,6.08c-0.67,0.41 -2.13,0.93 -3.16,1.11c-0.32,0.06 -0.59,0.08 -0.79,0.06c-0.2,0.02 -0.48,0 -0.8,-0.06c-1.08,-0.18 -2.6,-0.7 -3.27,-1.11c-0.19,-3.21 -2.18,-5.1 -3.89,-6.07c-0.97,-0.57 -3.66,-2.33 -5.55,-3.58c1.25,-0.93 2.14,-1.77 2.73,-2.38c-0.13,0.8 0.01,1.65 0.4,2.42c0.54,1.07 1.54,1.91 2.74,2.3c0.49,0.16 0.99,0.23 1.48,0.23c1.11,0 2.18,-0.39 2.97,-1.11c0.42,1.24 -0.47,2.44 -1.06,3.05c-0.26,0.28 -0.33,0.7 -0.19,1.06l0.05,0.12c0.22,0.53 0.57,0.99 1.03,1.32c0.52,0.38 1.23,0.88 1.77,1.21c0.31,0.19 0.67,0.29 1.04,0.29h0.93c0.39,0 0.76,-0.11 1.09,-0.32c0.53,-0.34 1.22,-0.82 1.73,-1.18c0.49,-0.33 0.86,-0.8 1.08,-1.35l0.04,-0.1c0.14,-0.35 0.07,-0.77 -0.19,-1.04c-0.57,-0.6 -1.44,-1.76 -1.09,-2.96c0.78,0.66 1.8,1.01 2.87,1.01c0.49,0 0.99,-0.07 1.48,-0.23c1.2,-0.39 2.2,-1.23 2.74,-2.3c0.42,-0.82 0.54,-1.72 0.38,-2.57l0.03,-0.01c0.57,0.62 1.51,1.52 2.86,2.53c-1.89,1.25 -4.58,3.01 -5.56,3.58zM37.02,25.9l3.6,-1.95c0,0.03 -0.01,0.05 -0.02,0.08c-0.03,0.2 -0.09,0.4 -0.19,0.59c-0.31,0.61 -0.88,1.08 -1.58,1.31c-0.59,0.19 -1.21,0.17 -1.73,0c-0.03,-0.01 -0.05,-0.02 -0.08,-0.03zM49.44,17.6c-0.12,0.44 -0.23,0.86 -0.34,1.25c-0.06,0.2 -0.12,0.39 -0.17,0.57c-0.04,0.11 -0.08,0.23 -0.11,0.34c-0.12,0.42 -0.24,0.81 -0.36,1.16c-0.06,0.19 -0.12,0.38 -0.18,0.55c-0.5,1.51 -0.89,2.43 -1.06,2.83c-1.27,-0.91 -2.19,-1.73 -2.8,-2.34l1.31,-0.71l2.03,-2.91c-0.36,-0.47 -0.75,-0.91 -1.18,-1.34l-2.15,2.69l-8.32,4.43c0.22,-1.4 0.9,-3.51 2.89,-5.12h2.36l3.95,-3.22l1.39,-1.13l4.04,-3.29l0.02,-0.22c0.05,0.06 0.1,0.11 0.16,0.17c-0.5,2.47 -1.01,4.56 -1.48,6.29z"></path></g><path d="M28.42,37.496c-1.239,-0.312 -1.634,-0.729 -1.634,-0.729c0,0 0.427,4.448 2.427,5.122c-0.793,-2.537 -0.793,-4.393 -0.793,-4.393z" fill="#ffffff"></path><path d="M35.421,37.637c0.998,-0.279 1.64,-0.813 1.64,-0.813c0,0 -0.262,4.157 -2.262,4.831c0.78,-2.538 0.622,-4.018 0.622,-4.018z" fill="#ffffff"></path><path d="M32.043,40.828v0c0.342,0 0.62,-0.278 0.62,-0.62v-1.76c0,-0.342 -0.278,-0.62 -0.62,-0.62v0c-0.342,0 -0.62,0.278 -0.62,0.62v1.76c0,0.343 0.277,0.62 0.62,0.62z" fill="#ffffff"></path><path d="M33.879,40.828v0c0.342,0 0.62,-0.278 0.62,-0.62v-1.76c0,-0.342 -0.278,-0.62 -0.62,-0.62v0c-0.342,0 -0.62,0.278 -0.62,0.62v1.76c0,0.343 0.277,0.62 0.62,0.62z" fill="#ffffff"></path><path d="M30.211,40.828v0c0.342,0 0.62,-0.278 0.62,-0.62v-1.76c0,-0.342 -0.278,-0.62 -0.62,-0.62v0c-0.342,0 -0.62,0.278 -0.62,0.62v1.76c0,0.343 0.278,0.62 0.62,0.62z" fill="#ffffff"></path></g></g></g></svg>